<svg width="48" height="48" viewBox="0 0 48 48" fill="none" xmlns="http://www.w3.org/2000/svg">
  <path d="M24 0C10.745 0 0 10.745 0 24C0 37.255 10.745 48 24 48C37.255 48 48 37.255 48 24C48 10.745 37.255 0 24 0Z" fill="#000000"/>
  <path d="M24.0001 7.27271C17.4546 7.27271 12.0001 9.81816 12.0001 19.6363V21.8181C12.0001 22.9091 12.5455 23.4545 13.6364 23.4545H15.2728C16.3637 23.4545 16.9091 22.9091 16.9091 21.8181V19.6363C16.9091 12.5454 19.6364 11.4545 24.0001 11.4545C28.3637 11.4545 31.091 12.5454 31.091 19.6363V21.8181C31.091 22.9091 31.6364 23.4545 32.7273 23.4545H34.3637C35.4546 23.4545 36 22.9091 36 21.8181V19.6363C36 9.81816 30.5455 7.27271 24.0001 7.27271Z" fill="white"/>
  <path d="M24 15.6363C19.0909 15.6363 15.2727 17.4545 15.2727 25.0909V35.4545C15.2727 36.5454 15.8182 37.0909 16.9091 37.0909H31.0909C32.1818 37.0909 32.7273 36.5454 32.7273 35.4545V25.0909C32.7273 17.4545 28.9091 15.6363 24 15.6363ZM24 20.7272C25.0909 20.7272 26.1818 21.2727 26.1818 22.9091C26.1818 24 25.6364 24.5454 25.0909 24.8181V29.4545C25.0909 30 24.5455 30.5454 24 30.5454C23.4545 30.5454 22.9091 30 22.9091 29.4545V24.8181C22.3636 24.5454 21.8182 24 21.8182 22.9091C21.8182 21.2727 22.9091 20.7272 24 20.7272Z" fill="white"/>
</svg>